<?xml version="1.0" encoding="utf-8"?>
<!-- Generator: Adobe Illustrator 16.0.0, SVG Export Plug-In . SVG Version: 6.00 Build 0)  -->
<!DOCTYPE svg PUBLIC "-//W3C//DTD SVG 1.1//EN" "http://www.w3.org/Graphics/SVG/1.1/DTD/svg11.dtd">
<svg version="1.1" id="Layer_1" xmlns="http://www.w3.org/2000/svg" xmlns:xlink="http://www.w3.org/1999/xlink" x="0px" y="0px"
	 width="25px" height="25px" viewBox="0 0 25 25" enable-background="new 0 0 25 25" xml:space="preserve">
<g>
	<rect fill="#FFFFFF" width="25" height="25"/>
	<g>
		<polygon fill="#E6E7E8" points="25,0.589 25,0.302 24.106,0.08 24.087,0 23.799,0 23.876,0.31 		"/>
		<polygon fill="#E6E7E8" points="24.196,1.628 24.525,2.94 25,3.059 25,2.772 24.754,2.71 24.427,1.398 23.115,1.071 22.848,0 
			22.56,0 22.884,1.301 		"/>
		<polygon fill="#E6E7E8" points="24.688,1.127 25,2.376 25,1.23 24.917,0.897 23.605,0.571 23.463,0 23.177,0 23.376,0.8 		"/>
		<polygon fill="#E6E7E8" points="21.566,0.98 21.894,2.292 23.206,2.619 23.533,3.932 24.846,4.259 25,4.881 25,4.01 23.763,3.702 
			23.436,2.39 22.123,2.062 21.796,0.75 20.484,0.423 20.379,0 20.091,0 20.253,0.653 		"/>
		<polygon fill="#E6E7E8" points="22.057,0.479 22.385,1.792 23.696,2.118 24.023,3.43 25,3.674 25,3.387 24.253,3.2 23.926,1.889 
			22.615,1.562 22.286,0.25 21.286,0 20.707,0 20.745,0.152 		"/>
		<polygon fill="#E6E7E8" points="18.935,0.332 19.263,1.644 20.575,1.972 20.902,3.284 22.215,3.61 22.542,4.923 23.854,5.25 
			24.181,6.562 25,6.767 25,6.479 24.41,6.333 24.083,5.021 22.771,4.694 22.443,3.38 21.132,3.054 20.805,1.742 19.492,1.415 
			19.165,0.102 18.757,0 17.623,0 17.624,0.004 		"/>
		<polygon fill="#E6E7E8" points="21.065,1.471 21.393,2.783 22.705,3.11 23.032,4.422 24.344,4.75 24.673,6.063 25,6.144 25,5.857 
			24.902,5.833 24.574,4.52 23.262,4.192 22.934,2.88 21.622,2.554 21.296,1.241 19.982,0.914 19.755,0 19.468,0 19.753,1.143 		"/>
		<polygon fill="#E6E7E8" points="17.944,1.323 18.271,2.635 19.584,2.962 19.911,4.275 21.223,4.602 21.55,5.915 22.862,6.241 
			23.189,7.553 24.501,7.881 24.829,9.193 25,9.236 25,8.731 24.732,7.651 23.419,7.323 23.092,6.012 21.781,5.685 21.452,4.373 
			20.14,4.045 19.813,2.733 18.501,2.405 18.174,1.093 16.861,0.767 16.67,0 16.384,0 16.632,0.997 		"/>
		<polygon fill="#E6E7E8" points="18.435,0.823 18.762,2.135 20.074,2.462 20.401,3.775 21.713,4.101 22.04,5.413 23.353,5.741 
			23.681,7.054 24.992,7.38 25,7.411 25,7.095 23.91,6.824 23.583,5.511 22.27,5.183 21.942,3.872 20.632,3.545 20.303,2.233 
			18.991,1.905 18.665,0.593 17.354,0.266 17.287,0 16.998,0 17.122,0.496 		"/>
		<polygon fill="#E6E7E8" points="15.313,0.676 15.641,1.988 16.952,2.315 17.28,3.627 18.592,3.954 18.919,5.266 20.231,5.593 
			20.559,6.906 21.87,7.233 22.198,8.545 23.51,8.873 23.837,10.184 25,10.474 25,10.188 24.066,9.955 23.74,8.643 22.427,8.315 
			22.102,7.003 20.789,6.676 20.461,5.364 19.148,5.037 18.821,3.724 17.509,3.397 17.182,2.085 15.87,1.758 15.543,0.446 
			14.23,0.118 14.201,0 13.914,0 14.001,0.348 		"/>
		<polygon fill="#E6E7E8" points="16.131,1.487 17.443,1.815 17.771,3.126 19.082,3.454 19.409,4.766 20.722,5.093 21.049,6.404 
			22.36,6.733 22.689,8.045 24,8.372 24.327,9.684 25,9.852 25,9.564 24.558,9.454 24.229,8.142 22.919,7.815 22.592,6.503 
			21.279,6.174 20.952,4.863 19.641,4.536 19.313,3.224 18.001,2.896 17.674,1.585 16.361,1.257 16.048,0 15.103,0 15.804,0.175 		
			"/>
		<polygon fill="#E6E7E8" points="13.01,1.34 14.321,1.667 14.649,2.979 15.961,3.306 16.288,4.619 17.601,4.946 17.928,6.258 
			19.239,6.584 19.567,7.898 20.879,8.225 21.206,9.537 22.52,9.864 22.846,11.176 24.157,11.502 24.484,12.815 25,12.944 
			25,12.657 24.716,12.586 24.387,11.273 23.076,10.946 22.749,9.634 21.436,9.307 21.109,7.995 19.798,7.668 19.469,6.355 
			18.158,6.028 17.829,4.716 16.518,4.389 16.19,3.077 14.88,2.749 14.551,1.437 13.239,1.11 12.963,0 12.571,0 12.683,0.028 		"/>
		<polygon fill="#E6E7E8" points="14.812,1.167 15.141,2.479 16.453,2.806 16.78,4.117 18.092,4.445 18.419,5.757 19.729,6.084 
			20.058,7.396 21.37,7.724 21.698,9.037 23.009,9.362 23.337,10.675 24.649,11.003 24.976,12.313 25,12.319 25,11.259 
			24.88,10.773 23.566,10.445 23.239,9.132 21.927,8.807 21.6,7.494 20.286,7.167 19.961,5.854 18.648,5.528 18.321,4.215 
			17.009,3.888 16.682,2.576 15.37,2.249 15.043,0.937 13.73,0.61 13.578,0 13.292,0 13.501,0.839 		"/>
		<polygon fill="#E6E7E8" points="11.691,1.02 12.018,2.331 13.33,2.659 13.657,3.971 14.97,4.297 15.297,5.609 16.608,5.938 
			16.937,7.25 18.248,7.577 18.577,8.889 19.888,9.216 20.215,10.527 21.526,10.855 21.854,12.167 23.166,12.495 23.495,13.807 
			24.806,14.134 25,14.913 25,13.895 23.724,13.577 23.396,12.265 22.085,11.938 21.757,10.625 20.445,10.297 20.118,8.986 
			18.806,8.659 18.479,7.346 17.167,7.02 16.84,5.708 15.527,5.379 15.198,4.067 13.888,3.741 13.561,2.429 12.248,2.101 
			11.921,0.79 10.609,0.461 10.494,0 10.207,0 10.379,0.691 		"/>
		<polygon fill="#E6E7E8" points="12.183,0.518 12.509,1.831 13.822,2.157 14.149,3.47 15.461,3.797 15.787,5.109 17.101,5.436 
			17.428,6.749 18.739,7.075 19.065,8.387 20.379,8.715 20.706,10.028 22.017,10.354 22.346,11.667 23.657,11.994 23.983,13.306 
			25,13.559 25,13.271 24.214,13.075 23.889,11.765 22.575,11.437 22.248,10.124 20.937,9.798 20.608,8.485 19.296,8.157 
			18.969,6.846 17.657,6.519 17.33,5.207 16.018,4.879 15.69,3.567 14.378,3.24 14.051,1.928 12.739,1.601 12.412,0.289 11.256,0 
			10.822,0 10.87,0.191 		"/>
		<polygon fill="#E6E7E8" points="9.06,0.371 9.388,1.683 10.7,2.01 11.027,3.322 12.339,3.65 12.667,4.962 13.978,5.289 
			14.305,6.601 15.617,6.928 15.946,8.24 17.257,8.567 17.585,9.88 18.897,10.207 19.223,11.519 20.536,11.847 20.863,13.158 
			22.175,13.484 22.503,14.798 23.815,15.126 24.141,16.437 25,16.651 25,16.363 24.372,16.207 24.044,14.895 22.732,14.569 
			22.405,13.256 21.093,12.929 20.766,11.617 19.454,11.289 19.126,9.977 17.814,9.65 17.487,8.337 16.175,8.011 15.848,6.698 
			14.536,6.371 14.208,5.059 12.896,4.732 12.569,3.42 11.256,3.092 10.93,1.78 9.617,1.453 9.29,0.141 8.724,0 7.737,0 
			7.748,0.043 		"/>
		<polygon fill="#E6E7E8" points="11.191,1.51 11.518,2.822 12.83,3.149 13.157,4.461 14.47,4.789 14.797,6.101 16.108,6.428 
			16.437,7.74 17.748,8.067 18.075,9.378 19.388,9.707 19.715,11.019 21.025,11.346 21.354,12.657 22.666,12.986 22.993,14.297 
			24.306,14.624 24.633,15.938 25,16.029 25,15.741 24.863,15.707 24.534,14.395 23.223,14.067 22.896,12.757 21.583,12.429 
			21.256,11.116 19.945,10.79 19.616,9.477 18.305,9.149 17.978,7.837 16.665,7.51 16.338,6.198 15.026,5.871 14.699,4.559 
			13.387,4.232 13.06,2.919 11.748,2.592 11.421,1.28 10.108,0.953 9.87,0 9.583,0 9.879,1.183 		"/>
		<polygon fill="#E6E7E8" points="8.069,1.362 8.396,2.675 9.708,3.002 10.036,4.314 11.348,4.641 11.675,5.953 12.987,6.28 
			13.313,7.593 14.627,7.92 14.954,9.232 16.267,9.559 16.594,10.872 17.905,11.198 18.231,12.511 19.545,12.838 19.872,14.15 
			21.185,14.477 21.512,15.79 22.823,16.115 23.149,17.428 24.463,17.757 24.79,19.068 25,19.12 25,18.76 24.692,17.525 
			23.38,17.198 23.053,15.887 21.74,15.56 21.413,14.247 20.102,13.92 19.774,12.608 18.462,12.28 18.135,10.969 16.823,10.642 
			16.495,9.329 15.184,9.002 14.856,7.69 13.544,7.363 13.217,6.051 11.905,5.723 11.578,4.411 10.266,4.084 9.938,2.772 
			8.626,2.445 8.298,1.133 6.986,0.805 6.786,0 6.499,0 6.756,1.035 		"/>
		<polygon fill="#E6E7E8" points="8.56,0.861 8.887,2.174 10.199,2.501 10.526,3.814 11.838,4.141 12.166,5.453 13.478,5.78 
			13.806,7.092 15.117,7.419 15.444,8.732 16.757,9.059 17.082,10.371 18.396,10.698 18.723,12.011 20.035,12.337 20.362,13.649 
			21.676,13.978 22,15.288 23.313,15.616 23.641,16.929 24.953,17.255 25,17.443 25,16.979 23.872,16.698 23.543,15.387 
			22.231,15.058 21.905,13.747 20.592,13.42 20.265,12.107 18.954,11.781 18.625,10.469 17.313,10.141 16.985,8.829 15.674,8.502 
			15.347,7.19 14.034,6.862 13.707,5.551 12.396,5.223 12.068,3.911 10.756,3.584 10.429,2.272 9.117,1.944 8.789,0.632 
			7.478,0.305 7.402,0 7.115,0 7.248,0.535 		"/>
		<polygon fill="#E6E7E8" points="5.438,0.715 5.766,2.026 7.078,2.354 7.405,3.666 8.717,3.994 9.044,5.305 10.356,5.633 
			10.684,6.945 11.995,7.271 12.323,8.583 13.636,8.912 13.963,10.224 15.274,10.551 15.602,11.863 16.914,12.19 17.241,13.501 
			18.554,13.83 18.881,15.141 20.192,15.468 20.52,16.781 21.832,17.107 22.159,18.419 23.471,18.748 23.799,20.059 25,20.358 
			25,20.071 24.027,19.829 23.702,18.518 22.389,18.19 22.062,16.878 20.749,16.551 20.422,15.238 19.109,14.911 18.784,13.6 
			17.471,13.272 17.144,11.96 15.831,11.633 15.504,10.32 14.192,9.994 13.864,8.682 12.553,8.354 12.225,7.042 10.913,6.715 
			10.586,5.402 9.273,5.076 8.947,3.764 7.635,3.437 7.308,2.124 5.995,1.797 5.668,0.485 4.355,0.158 4.316,0 4.029,0 4.126,0.387 
					"/>
		<polygon fill="#E6E7E8" points="6.256,1.526 7.568,1.853 7.896,3.166 9.208,3.492 9.535,4.805 10.847,5.131 11.174,6.444 
			12.487,6.771 12.813,8.083 14.126,8.41 14.453,9.723 15.765,10.049 16.092,11.361 17.404,11.689 17.733,13.002 19.044,13.327 
			19.371,14.641 20.685,14.968 21.01,16.28 22.322,16.607 22.65,17.919 23.963,18.247 24.289,19.559 25,19.735 25,19.448 
			24.52,19.328 24.192,18.018 22.88,17.69 22.553,16.378 21.239,16.05 20.913,14.739 19.602,14.41 19.272,13.098 17.962,12.772 
			17.635,11.459 16.321,11.131 15.994,9.82 14.684,9.493 14.356,8.181 13.044,7.853 12.716,6.542 11.404,6.214 11.077,4.902 
			9.765,4.575 9.438,3.263 8.125,2.935 7.798,1.623 6.486,1.296 6.163,0 5.073,0 5.929,0.214 		"/>
		<polygon fill="#E6E7E8" points="3.135,1.378 4.447,1.706 4.774,3.018 6.086,3.345 6.413,4.657 7.726,4.984 8.052,6.296 
			9.365,6.624 9.692,7.937 11.004,8.263 11.331,9.575 12.644,9.902 12.971,11.215 14.283,11.542 14.61,12.854 15.922,13.181 
			16.25,14.493 17.562,14.82 17.889,16.132 19.201,16.46 19.528,17.773 20.84,18.099 21.168,19.411 22.479,19.738 22.807,21.05 
			24.119,21.378 24.446,22.69 25,22.828 25,22.541 24.677,22.46 24.348,21.146 23.036,20.821 22.71,19.509 21.396,19.182 
			21.071,17.87 19.759,17.542 19.431,16.229 18.118,15.903 17.792,14.591 16.479,14.264 16.153,12.951 14.841,12.624 14.513,11.312 
			13.201,10.985 12.874,9.672 11.561,9.345 11.234,8.033 9.922,7.707 9.595,6.394 8.282,6.066 7.956,4.754 6.643,4.427 6.316,3.115 
			5.004,2.788 4.677,1.476 3.364,1.148 3.078,0 2.541,0 2.807,0.066 		"/>
		<polygon fill="#E6E7E8" points="4.938,1.205 5.266,2.517 6.577,2.845 6.905,4.157 8.217,4.484 8.544,5.796 9.855,6.123 
			10.184,7.435 11.496,7.763 11.823,9.074 13.135,9.402 13.461,10.714 14.773,11.041 15.101,12.353 16.413,12.681 16.741,13.993 
			18.052,14.319 18.379,15.633 19.692,15.96 20.019,17.271 21.33,17.599 21.659,18.911 22.972,19.238 23.297,20.55 24.61,20.878 
			24.938,22.189 25,22.205 25,21.29 24.84,20.648 23.527,20.321 23.2,19.009 21.889,18.682 21.562,17.368 20.248,17.041 
			19.922,15.73 18.61,15.403 18.281,14.09 16.971,13.764 16.644,12.451 15.33,12.123 15.004,10.811 13.692,10.484 13.364,9.172 
			12.052,8.845 11.726,7.533 10.413,7.206 10.085,5.893 8.773,5.566 8.447,4.254 7.134,3.927 6.807,2.615 5.495,2.288 5.167,0.975 
			3.855,0.648 3.694,0 3.407,0 3.625,0.878 		"/>
		<polygon fill="#E6E7E8" points="1.816,1.058 2.144,2.37 3.456,2.697 3.782,4.009 5.095,4.336 5.422,5.649 6.734,5.976 
			7.062,7.288 8.374,7.615 8.701,8.927 10.013,9.254 10.34,10.567 11.652,10.894 11.979,12.206 13.291,12.532 13.619,13.846 
			14.931,14.173 15.258,15.484 16.571,15.812 16.897,17.124 18.209,17.451 18.537,18.763 19.849,19.091 20.176,20.402 
			21.489,20.729 21.815,22.042 23.127,22.369 23.455,23.681 24.767,24.009 25,24.946 25,23.795 24.996,23.779 23.686,23.452 
			23.356,22.139 22.046,21.813 21.719,20.501 20.405,20.172 20.079,18.861 18.768,18.534 18.438,17.222 17.128,16.895 
			16.801,15.583 15.487,15.254 15.161,13.943 13.85,13.616 13.521,12.304 12.209,11.976 11.882,10.664 10.57,10.337 10.242,9.025 
			8.931,8.697 8.604,7.385 7.292,7.058 6.964,5.746 5.652,5.419 5.324,4.107 4.012,3.779 3.686,2.467 2.374,2.14 2.045,0.828 
			0.734,0.501 0.609,0 0.322,0 0.504,0.731 		"/>
		<polygon fill="#E6E7E8" points="2.307,0.558 2.634,1.87 3.947,2.197 4.274,3.509 5.586,3.835 5.913,5.148 7.225,5.476 
			7.553,6.788 8.865,7.115 9.192,8.427 10.504,8.754 10.831,10.066 12.143,10.394 12.47,11.706 13.781,12.033 14.109,13.344 
			15.423,13.673 15.75,14.984 17.061,15.311 17.388,16.624 18.701,16.951 19.027,18.262 20.341,18.591 20.668,19.902 21.979,20.229 
			22.306,21.542 23.619,21.869 23.946,23.182 25,23.444 25,23.156 24.176,22.95 23.849,21.64 22.536,21.312 22.209,20.001 
			20.896,19.673 20.569,18.36 19.256,18.032 18.931,16.722 17.618,16.394 17.29,15.081 15.979,14.756 15.651,13.442 14.338,13.114 
			14.013,11.803 12.7,11.476 12.373,10.164 11.061,9.836 10.734,8.525 9.422,8.197 9.094,6.885 7.782,6.558 7.455,5.246 
			6.143,4.918 5.815,3.606 4.504,3.279 4.176,1.967 2.864,1.64 2.537,0.328 1.225,0 1.225,0 0.937,0 0.995,0.23 		"/>
		<polygon fill="#E6E7E8" points="22.693,24.443 22.366,23.13 21.055,22.804 20.727,21.492 19.414,21.163 19.088,19.852 
			17.775,19.525 17.448,18.212 16.137,17.886 15.81,16.574 14.496,16.245 14.17,14.934 12.858,14.607 12.53,13.294 11.218,12.968 
			10.891,11.656 9.579,11.328 9.251,10.016 7.939,9.689 7.612,8.376 6.299,8.05 5.973,6.738 4.661,6.41 4.333,5.098 3.021,4.771 
			2.694,3.459 1.381,3.132 1.055,1.819 0,1.557 0,1.843 0.825,2.049 1.152,3.361 2.464,3.689 2.792,5 4.104,5.328 4.431,6.64 
			5.743,6.968 6.07,8.279 7.382,8.607 7.71,9.919 9.021,10.246 9.349,11.558 10.661,11.886 10.989,13.197 12.3,13.524 
			12.628,14.837 13.939,15.164 14.267,16.477 15.58,16.804 15.906,18.115 17.218,18.442 17.547,19.755 18.857,20.082 19.185,21.395 
			20.496,21.722 20.823,23.033 22.136,23.36 22.465,24.673 23.775,25 24.063,25 24.006,24.77 		"/>
		<polygon fill="#E6E7E8" points="23.184,23.942 22.858,22.632 21.545,22.303 21.218,20.991 19.906,20.663 19.578,19.352 
			18.266,19.022 17.94,17.714 16.627,17.385 16.3,16.073 14.989,15.745 14.66,14.434 13.348,14.104 13.021,12.794 11.709,12.467 
			11.381,11.155 10.069,10.827 9.742,9.516 8.43,9.188 8.103,7.876 6.792,7.549 6.463,6.237 5.151,5.909 4.824,4.597 3.512,4.271 
			3.185,2.958 1.873,2.63 1.545,1.319 0.234,0.991 0,0.054 0,1.21 0.003,1.222 1.316,1.548 1.642,2.861 2.955,3.188 3.282,4.5 
			4.594,4.827 4.921,6.14 6.234,6.466 6.561,7.78 7.873,8.105 8.2,9.418 9.513,9.746 9.839,11.058 11.152,11.384 11.479,12.698 
			12.791,13.023 13.117,14.336 14.431,14.663 14.758,15.977 16.068,16.302 16.396,17.615 17.709,17.942 18.035,19.254 
			19.349,19.581 19.676,20.895 20.988,21.22 21.314,22.533 22.627,22.86 22.955,24.173 24.267,24.499 24.392,25 24.679,25 
			24.496,24.27 		"/>
		<polygon fill="#E6E7E8" points="20.063,23.794 19.735,22.483 18.424,22.155 18.096,20.845 16.784,20.518 16.455,19.204 
			15.145,18.876 14.817,17.565 13.506,17.237 13.178,15.927 11.866,15.6 11.538,14.286 10.227,13.959 9.899,12.647 8.587,12.319 
			8.26,11.007 6.948,10.681 6.62,9.369 5.308,9.041 4.981,7.729 3.669,7.401 3.342,6.089 2.03,5.762 1.703,4.451 0.391,4.123 
			0.063,2.811 0,2.795 0,3.708 0.161,4.353 1.473,4.68 1.8,5.991 3.112,6.319 3.44,7.631 4.752,7.958 5.079,9.27 6.391,9.598 
			6.718,10.91 8.03,11.237 8.358,12.55 9.669,12.876 9.997,14.189 11.309,14.515 11.637,15.828 12.948,16.155 13.274,17.467 
			14.588,17.795 14.916,19.107 16.227,19.433 16.555,20.746 17.867,21.073 18.192,22.385 19.506,22.713 19.833,24.025 
			21.145,24.351 21.307,25 21.593,25 21.373,24.122 		"/>
		<polygon fill="#E6E7E8" points="21.865,23.623 20.553,23.294 20.226,21.983 18.914,21.656 18.586,20.343 17.273,20.016 
			16.947,18.705 15.635,18.377 15.307,17.064 13.996,16.738 13.669,15.425 12.356,15.098 12.028,13.786 10.717,13.459 
			10.389,12.147 9.077,11.819 8.75,10.508 7.438,10.181 7.11,8.869 5.799,8.542 5.471,7.229 4.159,6.901 3.832,5.589 2.52,5.263 
			2.193,3.951 0.881,3.623 0.553,2.312 0,2.173 0,2.459 0.325,2.54 0.651,3.852 1.964,4.179 2.291,5.492 3.604,5.818 3.93,7.131 
			5.243,7.458 5.569,8.771 6.882,9.097 7.208,10.41 8.521,10.736 8.848,12.049 10.161,12.376 10.487,13.689 11.8,14.015 
			12.126,15.327 13.439,15.654 13.767,16.968 15.078,17.292 15.406,18.607 16.719,18.933 17.044,20.245 18.357,20.572 
			18.685,21.886 19.996,22.212 20.324,23.525 21.637,23.851 21.922,25 22.452,25 22.192,24.936 		"/>
		<polygon fill="#E6E7E8" points="18.744,23.474 17.432,23.146 17.104,21.835 15.793,21.507 15.465,20.195 14.153,19.868 
			13.826,18.556 12.514,18.229 12.187,16.917 10.875,16.59 10.547,15.277 9.235,14.95 8.908,13.638 7.596,13.311 7.268,11.999 
			5.957,11.671 5.629,10.359 4.317,10.032 3.99,8.72 2.678,8.393 2.35,7.081 1.038,6.753 0.711,5.441 0,5.264 0,5.552 0.481,5.672 
			0.808,6.983 2.12,7.312 2.447,8.624 3.759,8.951 4.087,10.262 5.399,10.59 5.726,11.902 7.038,12.229 7.365,13.541 8.677,13.869 
			9.005,15.181 10.317,15.508 10.645,16.82 11.956,17.147 12.283,18.459 13.596,18.787 13.923,20.099 15.234,20.426 15.562,21.738 
			16.874,22.065 17.201,23.377 18.514,23.704 18.837,25 19.929,25 19.071,24.786 		"/>
		<polygon fill="#E6E7E8" points="19.563,24.284 19.235,22.974 17.924,22.646 17.596,21.333 16.283,21.006 15.957,19.695 
			14.645,19.366 14.316,18.055 13.006,17.729 12.678,16.415 11.366,16.088 11.038,14.776 9.727,14.449 9.399,13.138 8.087,12.81 
			7.76,11.498 6.448,11.171 6.121,9.859 4.809,9.532 4.481,8.22 3.169,7.892 2.842,6.58 1.53,6.253 1.203,4.941 0,4.64 0,4.929 
			0.972,5.171 1.3,6.483 2.611,6.81 2.938,8.122 4.25,8.45 4.579,9.762 5.89,10.089 6.218,11.401 7.53,11.729 7.856,13.04 
			9.168,13.367 9.497,14.68 10.808,15.007 11.135,16.318 12.448,16.646 12.776,17.959 14.086,18.285 14.414,19.598 15.727,19.926 
			16.052,21.236 17.365,21.563 17.692,22.877 19.005,23.205 19.332,24.516 20.645,24.844 20.684,25 20.972,25 20.875,24.613 		"/>
		<polygon fill="#E6E7E8" points="16.438,24.139 16.113,22.827 14.801,22.5 14.473,21.187 13.161,20.861 12.834,19.549 
			11.521,19.221 11.194,17.91 9.883,17.582 9.555,16.269 8.243,15.943 7.916,14.631 6.604,14.303 6.276,12.991 4.964,12.663 
			4.637,11.352 3.325,11.024 2.998,9.712 1.686,9.385 1.358,8.073 0.046,7.745 0,7.559 0,8.019 1.13,8.302 1.457,9.614 2.769,9.941 
			3.097,11.252 4.409,11.581 4.736,12.893 6.048,13.22 6.375,14.531 7.687,14.859 8.015,16.171 9.327,16.498 9.654,17.811 
			10.966,18.138 11.293,19.449 12.606,19.777 12.933,21.089 14.244,21.416 14.571,22.729 15.884,23.056 16.211,24.367 
			17.523,24.694 17.6,25 17.885,25 17.752,24.467 		"/>
		<polygon fill="#E6E7E8" points="16.932,23.639 16.604,22.326 15.291,21.998 14.965,20.687 13.652,20.359 13.324,19.046 
			12.014,18.721 11.686,17.408 10.374,17.08 10.046,15.77 8.735,15.441 8.407,14.13 7.095,13.803 6.768,12.49 5.456,12.163 
			5.128,10.851 3.817,10.524 3.489,9.212 2.177,8.884 1.85,7.572 0.538,7.245 0.21,5.933 0,5.88 0,6.239 0.308,7.475 1.62,7.802 
			1.948,9.114 3.26,9.441 3.587,10.753 4.899,11.081 5.226,12.393 6.538,12.72 6.865,14.031 8.177,14.359 8.505,15.671 
			9.817,15.998 10.144,17.309 11.456,17.638 11.784,18.949 13.095,19.277 13.423,20.589 14.736,20.918 15.062,22.227 16.374,22.556 
			16.703,23.867 18.014,24.195 18.215,25 18.501,25 18.242,23.966 		"/>
		<polygon fill="#E6E7E8" points="13.811,23.49 13.482,22.177 12.171,21.852 11.844,20.539 10.531,20.211 10.204,18.9 8.893,18.572 
			8.565,17.259 7.253,16.934 6.925,15.621 5.613,15.293 5.286,13.98 3.974,13.653 3.647,12.342 2.335,12.014 2.008,10.703 
			0.696,10.375 0.368,9.063 0,8.971 0,9.259 0.138,9.293 0.465,10.605 1.777,10.933 2.104,12.245 3.417,12.573 3.744,13.884 
			5.056,14.211 5.383,15.523 6.695,15.851 7.023,17.162 8.334,17.49 8.662,18.804 9.974,19.131 10.301,20.441 11.613,20.77 
			11.941,22.08 13.251,22.408 13.58,23.721 14.893,24.049 15.13,25 15.416,25 15.123,23.817 		"/>
		<polygon fill="#E6E7E8" points="15.94,24.63 15.613,23.318 14.3,22.989 13.974,21.679 12.661,21.352 12.333,20.038 11.022,19.712 
			10.694,18.4 9.382,18.071 9.055,16.76 7.743,16.434 7.416,15.121 6.104,14.793 5.776,13.482 4.464,13.154 4.137,11.842 
			2.825,11.515 2.498,10.203 1.186,9.875 0.858,8.563 0,8.35 0,8.636 0.628,8.792 0.957,10.104 2.269,10.432 2.596,11.744 
			3.907,12.071 4.235,13.384 5.547,13.711 5.875,15.021 7.187,15.351 7.514,16.663 8.825,16.99 9.152,18.301 10.465,18.629 
			10.793,19.941 12.104,20.268 12.432,21.58 13.744,21.908 14.07,23.219 15.383,23.547 15.711,24.859 16.275,25 17.263,25 
			17.252,24.957 		"/>
		<polygon fill="#E6E7E8" points="12.818,24.482 12.49,23.17 11.179,22.843 10.852,21.531 9.539,21.203 9.212,19.892 7.9,19.564 
			7.573,18.252 6.261,17.925 5.933,16.613 4.621,16.285 4.294,14.974 2.982,14.646 2.655,13.334 1.343,13.006 1.015,11.695 
			0,11.442 0,11.728 0.786,11.924 1.113,13.236 2.425,13.563 2.752,14.876 4.064,15.203 4.392,16.515 5.704,16.842 6.031,18.154 
			7.343,18.481 7.671,19.793 8.982,20.121 9.31,21.433 10.622,21.76 10.949,23.072 12.261,23.399 12.589,24.711 13.744,25 
			14.178,25 14.13,24.81 		"/>
		<polygon fill="#E6E7E8" points="13.308,23.98 12.983,22.67 11.67,22.342 11.342,21.029 10.032,20.703 9.704,19.391 8.391,19.063 
			8.063,17.751 6.752,17.424 6.424,16.111 5.112,15.784 4.786,14.473 3.474,14.145 3.146,12.833 1.834,12.506 1.506,11.194 
			0.194,10.866 0,10.087 0,11.106 1.276,11.424 1.604,12.736 2.915,13.063 3.243,14.376 4.555,14.703 4.882,16.015 6.194,16.342 
			6.521,17.654 7.833,17.981 8.16,19.294 9.473,19.621 9.801,20.935 11.111,21.26 11.439,22.572 12.752,22.9 13.078,24.211 
			14.391,24.539 14.506,25 14.794,25 14.621,24.308 		"/>
		<polygon fill="#E6E7E8" points="10.188,23.834 9.86,22.522 8.548,22.193 8.221,20.883 6.91,20.556 6.581,19.244 5.27,18.916 
			4.942,17.604 3.63,17.275 3.302,15.964 1.991,15.638 1.663,14.326 0.351,13.997 0.024,12.687 0,12.68 0,13.74 0.122,14.228 
			1.434,14.555 1.762,15.867 3.073,16.194 3.4,17.507 4.712,17.834 5.041,19.146 6.352,19.473 6.68,20.785 7.992,21.112 
			8.318,22.425 9.631,22.752 9.958,24.063 11.27,24.391 11.422,25 11.709,25 11.499,24.162 		"/>
		<polygon fill="#E6E7E8" points="11.991,23.662 10.678,23.334 10.351,22.021 9.039,21.695 8.712,20.382 7.398,20.055 7.073,18.742 
			5.76,18.417 5.433,17.104 4.121,16.775 3.794,15.464 2.481,15.138 2.155,13.824 0.842,13.499 0.516,12.185 0,12.057 0,12.343 
			0.286,12.415 0.613,13.728 1.925,14.054 2.252,15.367 3.565,15.693 3.891,17.007 5.204,17.332 5.531,18.646 6.843,18.972 
			7.169,20.284 8.482,20.611 8.81,21.925 10.121,22.25 10.449,23.563 11.762,23.891 12.038,25 12.426,25 12.316,24.973 		"/>
		<polygon fill="#E6E7E8" points="8.869,23.514 7.557,23.186 7.229,21.875 5.918,21.548 5.59,20.234 4.279,19.906 3.951,18.595 
			2.639,18.268 2.312,16.955 1,16.628 0.672,15.316 0,15.148 0,15.436 0.443,15.545 0.77,16.858 2.082,17.185 2.409,18.498 
			3.722,18.825 4.048,20.138 5.361,20.463 5.688,21.778 7,22.104 7.326,23.416 8.64,23.743 8.952,25 9.899,25 9.197,24.824 		"/>
		<polygon fill="#E6E7E8" points="9.688,24.324 9.359,23.012 8.049,22.686 7.721,21.373 6.408,21.045 6.081,19.734 4.77,19.407 
			4.442,18.095 3.13,17.766 2.803,16.455 1.491,16.128 1.163,14.816 0,14.526 0,14.813 0.933,15.045 1.26,16.357 2.572,16.687 
			2.9,17.997 4.212,18.325 4.539,19.638 5.851,19.963 6.178,21.275 7.49,21.604 7.818,22.916 9.129,23.242 9.457,24.556 
			10.77,24.883 10.799,25 11.087,25 11,24.652 		"/>
		<polygon fill="#E6E7E8" points="6.564,24.179 6.238,22.865 4.926,22.539 4.599,21.226 3.287,20.899 2.96,19.586 1.646,19.261 
			1.32,17.947 0.008,17.621 0,17.59 0,17.905 1.091,18.176 1.417,19.489 2.73,19.815 3.057,21.129 4.369,21.455 4.696,22.769 
			6.009,23.094 6.335,24.407 7.648,24.734 7.714,25 8.001,25 7.878,24.504 		"/>
		<polygon fill="#E6E7E8" points="7.057,23.679 6.729,22.365 5.416,22.038 5.089,20.726 3.777,20.398 3.45,19.086 2.138,18.759 
			1.811,17.447 0.499,17.12 0.171,15.808 0,15.765 0,16.271 0.27,17.349 1.582,17.677 1.908,18.988 3.22,19.315 3.548,20.628 
			4.859,20.955 5.187,22.267 6.5,22.594 6.828,23.907 8.138,24.233 8.33,25 8.616,25 8.367,24.004 		"/>
		<polygon fill="#E6E7E8" points="3.936,23.529 3.607,22.217 2.296,21.89 1.968,20.578 0.656,20.251 0.329,18.938 0,18.856 
			0,19.144 0.098,19.168 0.426,20.479 1.738,20.809 2.065,22.12 3.377,22.448 3.706,23.76 5.017,24.087 5.245,25 5.532,25 
			5.248,23.856 		"/>
		<polygon fill="#E6E7E8" points="6.066,24.669 5.738,23.356 4.425,23.028 4.098,21.717 2.787,21.39 2.458,20.078 1.146,19.751 
			0.82,18.438 0,18.234 0,18.521 0.59,18.668 0.917,19.979 2.229,20.308 2.557,21.619 3.869,21.946 4.196,23.257 5.508,23.586 
			5.836,24.897 6.246,25 7.378,25 7.376,24.994 		"/>
		<polygon fill="#E6E7E8" points="2.944,24.521 2.615,23.209 1.304,22.882 0.977,21.569 0,21.326 0,21.612 0.747,21.799 
			1.075,23.11 2.386,23.438 2.714,24.751 3.709,25 4.293,25 4.255,24.848 		"/>
		<polygon fill="#E6E7E8" points="3.434,24.02 3.107,22.707 1.795,22.382 1.468,21.069 0.156,20.741 0,20.118 0,20.99 1.237,21.299 
			1.565,22.61 2.876,22.938 3.204,24.25 4.516,24.577 4.622,25 4.909,25 4.746,24.348 		"/>
		<polygon fill="#E6E7E8" points="0.313,23.873 0,22.622 0,23.77 0.083,24.103 1.395,24.43 1.538,25 1.824,25 1.625,24.2 		"/>
		<polygon fill="#E6E7E8" points="0.803,23.373 0.475,22.062 0,21.942 0,22.228 0.247,22.289 0.573,23.603 1.886,23.929 2.152,25 
			2.439,25 2.115,23.7 		"/>
		<polygon fill="#E6E7E8" points="0,24.41 0,24.698 0.894,24.921 0.913,25 1.202,25 1.125,24.69 		"/>
	</g>
	<g display="none">
		<g display="inline" opacity="0.15">
			<path opacity="0" fill="#FFFFFF" d="M16.748,14.956l-4.241,2.457l-4.256-2.457v-4.913l4.256-2.456l4.241,2.456V14.956z
				 M12.507,6.806L7.57,9.663v5.674l4.937,2.857l4.923-2.857V9.663L12.507,6.806z"/>
			<path opacity="0.0385" fill="#F7F7F7" d="M16.714,14.936l-4.207,2.438l-4.221-2.438v-4.872l4.221-2.437l4.207,2.437V14.936z
				 M7.611,9.687v5.628l4.896,2.834l4.882-2.834V9.687l-4.882-2.834L7.611,9.687z"/>
			<path opacity="0.0769" fill="#EFEFEF" d="M16.679,14.915l-4.172,2.417l-4.186-2.417v-4.831l4.186-2.417l4.172,2.417V14.915z
				 M7.651,9.709v5.582l4.856,2.811l4.842-2.811V9.709l-4.842-2.811L7.651,9.709z"/>
			<path opacity="0.1154" fill="#E7E7E7" d="M16.644,14.895l-4.137,2.397l-4.152-2.397v-4.79l4.152-2.397l4.137,2.397V14.895z
				 M7.691,9.733v5.535l4.815,2.788l4.802-2.788V9.733l-4.802-2.789L7.691,9.733z"/>
			<path opacity="0.1538" fill="#E0E0E0" d="M16.609,14.874l-4.103,2.378L8.39,14.874v-4.748l4.117-2.377l4.103,2.377V14.874z
				 M7.732,9.756v5.488l4.775,2.765l4.761-2.765V9.756l-4.761-2.765L7.732,9.756z"/>
			<path opacity="0.1923" fill="#D8D8D8" d="M16.574,14.854l-4.067,2.358l-4.082-2.358v-4.707l4.082-2.358l4.067,2.358V14.854z
				 M7.772,9.779v5.442l4.734,2.741l4.721-2.741V9.779l-4.721-2.742L7.772,9.779z"/>
			<path opacity="0.2308" fill="#D0D0D0" d="M16.539,14.833l-4.032,2.338L8.46,14.833v-4.666l4.047-2.338l4.032,2.338V14.833z
				 M7.813,9.802v5.396l4.694,2.718l4.681-2.718V9.802l-4.681-2.718L7.813,9.802z"/>
			<path opacity="0.2692" fill="#C8C8C8" d="M16.504,14.812l-3.997,2.319l-4.012-2.319v-4.624l4.012-2.318l3.997,2.318V14.812z
				 M7.853,9.825v5.349l4.654,2.695l4.64-2.695V9.825l-4.64-2.696L7.853,9.825z"/>
			<path opacity="0.3077" fill="#C0C0C0" d="M16.47,14.791l-3.963,2.299L8.53,14.791v-4.583l3.977-2.298l3.963,2.298V14.791z
				 M7.894,9.849v5.303l4.613,2.673l4.6-2.673V9.849l-4.6-2.673L7.894,9.849z"/>
			<path opacity="0.3462" fill="#B8B8B8" d="M16.436,14.771l-3.928,2.278l-3.942-2.278v-4.542l3.942-2.279l3.928,2.279V14.771z
				 M7.934,9.872v5.256l4.574,2.649l4.559-2.649V9.872l-4.559-2.649L7.934,9.872z"/>
			<path opacity="0.3846" fill="#B1B1B1" d="M16.4,14.75l-3.894,2.26L8.6,14.75v-4.5l3.907-2.26l3.894,2.26V14.75z M7.974,9.895
				v5.209l4.533,2.626l4.519-2.626V9.895l-4.519-2.626L7.974,9.895z"/>
			<path opacity="0.4231" fill="#A9A9A9" d="M16.365,14.729l-3.859,2.239l-3.872-2.239v-4.459l3.872-2.24l3.859,2.24V14.729z
				 M8.015,9.918v5.163l4.492,2.603l4.478-2.603V9.918l-4.478-2.604L8.015,9.918z"/>
			<path opacity="0.4615" fill="#A1A1A1" d="M16.33,14.709l-3.823,2.221l-3.838-2.221v-4.418l3.838-2.22l3.823,2.22V14.709z
				 M8.055,9.941v5.117l4.452,2.58l4.438-2.58V9.941l-4.438-2.58L8.055,9.941z"/>
			<path opacity="0.5" fill="#999999" d="M16.296,14.688l-3.789,2.2l-3.803-2.2v-4.376l3.803-2.201l3.789,2.201V14.688z
				 M8.096,9.965v5.07l4.411,2.557l4.397-2.557v-5.07l-4.397-2.557L8.096,9.965z"/>
			<path opacity="0.5385" fill="#919191" d="M16.262,14.668l-3.755,2.181l-3.768-2.181v-4.335l3.768-2.181l3.755,2.181V14.668z
				 M8.136,9.988v5.023l4.371,2.533l4.356-2.533V9.988l-4.356-2.534L8.136,9.988z"/>
			<path opacity="0.5769" fill="#898989" d="M16.227,14.647l-3.72,2.161l-3.733-2.161v-4.294l3.733-2.162l3.72,2.162V14.647z
				 M8.176,10.011v4.978l4.331,2.511l4.316-2.511v-4.978L12.507,7.5L8.176,10.011z"/>
			<path opacity="0.6154" fill="#818181" d="M16.191,14.627l-3.685,2.141l-3.698-2.141v-4.253l3.698-2.142l3.685,2.142V14.627z
				 M8.216,10.034v4.932l4.291,2.487l4.276-2.487v-4.932l-4.276-2.487L8.216,10.034z"/>
			<path opacity="0.6538" fill="#7A7A7A" d="M16.156,14.606l-3.649,2.121l-3.663-2.121v-4.212l3.663-2.122l3.649,2.122V14.606z
				 M8.257,10.058v4.885l4.25,2.464l4.236-2.464v-4.885l-4.236-2.465L8.257,10.058z"/>
			<path opacity="0.6923" fill="#727272" d="M16.122,14.586l-3.615,2.102l-3.628-2.102v-4.171l3.628-2.102l3.615,2.102V14.586z
				 M8.297,10.081v4.838l4.21,2.44l4.195-2.44v-4.838L12.507,7.64L8.297,10.081z"/>
			<path opacity="0.7308" fill="#6A6A6A" d="M16.087,14.565l-3.58,2.081l-3.594-2.081v-4.129l3.594-2.083l3.58,2.083V14.565z
				 M8.337,10.104v4.792l4.169,2.418l4.155-2.418v-4.792l-4.155-2.418L8.337,10.104z"/>
			<path opacity="0.7692" fill="#626262" d="M16.053,14.544l-3.546,2.063l-3.559-2.063v-4.087l3.559-2.063l3.546,2.063V14.544z
				 M8.378,10.127v4.746l4.129,2.395l4.114-2.395v-4.746l-4.114-2.396L8.378,10.127z"/>
			<path opacity="0.8077" fill="#5A5A5A" d="M16.018,14.523l-3.511,2.043l-3.524-2.043v-4.046l3.524-2.043l3.511,2.043V14.523z
				 M8.418,10.151v4.699l4.089,2.371l4.074-2.371v-4.699l-4.074-2.373L8.418,10.151z"/>
			<path opacity="0.8462" fill="#525252" d="M15.982,14.503l-3.476,2.022l-3.489-2.022v-4.005l3.489-2.023l3.476,2.023V14.503z
				 M8.458,10.174v4.652l4.048,2.349l4.033-2.349v-4.652l-4.033-2.35L8.458,10.174z"/>
			<path opacity="0.8846" fill="#4B4B4B" d="M15.948,14.482l-3.441,2.003l-3.454-2.003v-3.963l3.454-2.004l3.441,2.004V14.482z
				 M8.499,10.197v4.605l4.008,2.325l3.993-2.325v-4.605l-3.993-2.327L8.499,10.197z"/>
			<path opacity="0.9231" fill="#434343" d="M15.913,14.462l-3.406,1.983l-3.419-1.983V10.54l3.419-1.984l3.406,1.984V14.462z
				 M8.54,10.22v4.56l3.967,2.302l3.953-2.302v-4.56l-3.953-2.303L8.54,10.22z"/>
			<path opacity="0.9615" fill="#3B3B3B" d="M15.879,14.441l-3.372,1.963l-3.384-1.963v-3.881l3.384-1.965l3.372,1.965V14.441z
				 M8.58,10.243v4.514l3.927,2.279l3.912-2.279v-4.514l-3.912-2.28L8.58,10.243z"/>
			<path fill="#333333" d="M15.844,10.581v3.84l-3.337,1.943l-3.35-1.943v-3.84l3.35-1.945L15.844,10.581z M8.62,10.267v4.467
				l3.887,2.256l3.872-2.256v-4.467L12.507,8.01L8.62,10.267z"/>
		</g>
		<radialGradient id="SVGID_1_" cx="13.0039" cy="12.9443" r="17.9232" gradientUnits="userSpaceOnUse">
			<stop  offset="0" style="stop-color:#FFFFFF"/>
			<stop  offset="0.1345" style="stop-color:#FBFBFB"/>
			<stop  offset="0.2542" style="stop-color:#F1F1F1"/>
			<stop  offset="0.3684" style="stop-color:#DEDEDE"/>
			<stop  offset="0.4791" style="stop-color:#C5C5C5"/>
			<stop  offset="0.5874" style="stop-color:#A4A4A4"/>
			<stop  offset="0.6939" style="stop-color:#7B7B7B"/>
			<stop  offset="0.7989" style="stop-color:#4B4B4B"/>
			<stop  offset="0.9002" style="stop-color:#151515"/>
			<stop  offset="0.9355" style="stop-color:#000000"/>
		</radialGradient>
		<polygon display="inline" fill="url(#SVGID_1_)" points="13.006,17.568 9.006,15.244 9.006,10.644 13.006,8.321 17.002,10.644 
			17.002,15.244 13.061,17.521 		"/>
		<g display="inline">
			<g>
				<path fill="#4C4A4C" d="M10.726,12.522c0,0.178-0.055,0.313-0.146,0.4c-0.111,0.113-0.244,0.158-0.434,0.158H9.832v-1.117h0.347
					c0.166,0,0.301,0.045,0.4,0.135C10.681,12.21,10.726,12.343,10.726,12.522z M10.591,12.522c0-0.156-0.045-0.268-0.111-0.334
					c-0.078-0.068-0.18-0.113-0.322-0.113h-0.19v0.893h0.155c0.156,0,0.268-0.045,0.346-0.109
					C10.546,12.769,10.591,12.655,10.591,12.522z"/>
				<path fill="#4C4A4C" d="M11.595,13.081H10.97v-1.117h0.625v0.111h-0.49v0.357h0.469v0.111h-0.469v0.424h0.49V13.081z"/>
				<path fill="#4C4A4C" d="M12.478,12.79c0,0.088-0.033,0.178-0.1,0.223c-0.078,0.045-0.168,0.09-0.291,0.09
					c-0.135,0-0.246-0.021-0.313-0.045v-0.135c0.045,0.023,0.1,0.023,0.156,0.045c0.045,0,0.102,0.023,0.156,0.023
					c0.09,0,0.156-0.023,0.189-0.068c0.047-0.02,0.068-0.064,0.068-0.133c0-0.045,0-0.066-0.021-0.09
					c-0.012-0.021-0.035-0.045-0.08-0.066c-0.033-0.023-0.088-0.043-0.168-0.068c-0.1-0.043-0.178-0.088-0.223-0.133
					c-0.043-0.066-0.066-0.111-0.066-0.199c0-0.09,0.033-0.158,0.1-0.203c0.066-0.066,0.156-0.088,0.258-0.088
					c0.111,0,0.211,0.021,0.314,0.066l-0.047,0.111c-0.088-0.045-0.18-0.066-0.268-0.066c-0.068,0-0.123,0.021-0.168,0.045
					c-0.033,0.045-0.055,0.066-0.055,0.135c0,0.045,0.01,0.064,0.021,0.088c0.01,0.021,0.033,0.045,0.078,0.066
					c0.033,0.021,0.078,0.045,0.145,0.068c0.123,0.045,0.201,0.088,0.246,0.135C12.458,12.634,12.478,12.7,12.478,12.79z"/>
				<path fill="#4C4A4C" d="M12.712,13.081v-1.117h0.125v1.117H12.712z"/>
				<path fill="#4C4A4C" d="M13.641,12.501h0.379v0.535c-0.057,0.021-0.125,0.045-0.18,0.045c-0.068,0.021-0.135,0.021-0.211,0.021
					c-0.168,0-0.303-0.045-0.404-0.156c-0.088-0.111-0.131-0.246-0.131-0.424c0-0.113,0.021-0.225,0.064-0.313
					c0.045-0.09,0.111-0.156,0.203-0.201c0.088-0.045,0.188-0.066,0.311-0.066c0.111,0,0.223,0.021,0.336,0.066l-0.055,0.111
					c-0.102-0.045-0.203-0.066-0.293-0.066c-0.133,0-0.244,0.045-0.322,0.135c-0.068,0.066-0.113,0.178-0.113,0.334
					s0.045,0.268,0.113,0.336c0.078,0.088,0.18,0.133,0.322,0.133c0.078,0,0.156-0.023,0.225-0.045V12.61h-0.244V12.501z"/>
				<path fill="#4C4A4C" d="M15.17,13.081h-0.158l-0.604-0.938h-0.01c0.01,0.111,0.01,0.199,0.01,0.313v0.625h-0.119v-1.117h0.143
					l0.615,0.939h0.01c-0.01-0.025-0.01-0.068-0.01-0.135c0-0.09,0-0.135,0-0.158v-0.646h0.123V13.081z"/>
			</g>
			<g>
				<path fill="#4C4A4C" d="M10.591,13.661c0,0.021-0.012,0.045-0.033,0.066c-0.012,0.023-0.045,0.023-0.078,0.023h-0.033v0.111
					h-0.035v-0.27h0.08C10.558,13.593,10.591,13.618,10.591,13.661z M10.446,13.728h0.033c0.023,0,0.045,0,0.057-0.021
					c0.01,0,0.021-0.023,0.021-0.045c0,0-0.012-0.023-0.021-0.023c-0.012-0.02-0.033-0.02-0.057-0.02h-0.033V13.728z"/>
				<path fill="#4C4A4C" d="M10.647,13.862v-0.27h0.033v0.248h0.111v0.021H10.647z"/>
				<path fill="#4C4A4C" d="M11.017,13.862l-0.035-0.09H10.87l-0.033,0.09h-0.033l0.111-0.27h0.021l0.113,0.27H11.017z
					 M10.97,13.751l-0.033-0.09c0-0.023-0.012-0.023-0.012-0.043c-0.01,0.02-0.01,0.02-0.01,0.043l-0.033,0.09H10.97z"/>
				<path fill="#4C4A4C" d="M11.194,13.618c-0.021,0-0.045,0-0.066,0.02c-0.012,0.023-0.023,0.045-0.023,0.09
					c0,0.023,0.012,0.068,0.023,0.068c0.01,0.021,0.045,0.045,0.066,0.045s0.045,0,0.066-0.023v0.045c-0.012,0-0.045,0-0.066,0
					c-0.045,0-0.066,0-0.09-0.045c-0.023-0.021-0.033-0.045-0.033-0.09s0-0.066,0.01-0.09c0.012,0,0.023-0.02,0.047-0.045
					c0.021,0,0.045-0.02,0.066-0.02c0.033,0,0.055,0.02,0.078,0.02l-0.012,0.025C11.239,13.618,11.216,13.618,11.194,13.618z"/>
				<path fill="#4C4A4C" d="M11.474,13.862h-0.156v-0.27h0.156v0.025h-0.123v0.088h0.123v0.021h-0.123v0.113h0.123V13.862z"/>
				<path fill="#4C4A4C" d="M11.706,13.728l0.068-0.135h0.035l-0.092,0.158v0.111h-0.031v-0.111l-0.092-0.158h0.035L11.706,13.728z"
					/>
				<path fill="#4C4A4C" d="M12.075,13.728c0,0.045-0.01,0.068-0.033,0.09c-0.01,0.045-0.043,0.045-0.09,0.045
					c-0.031,0-0.066,0-0.088-0.045c-0.023-0.021-0.033-0.045-0.033-0.09s0.01-0.09,0.033-0.109c0.021-0.025,0.057-0.045,0.088-0.045
					c0.047,0,0.08,0.02,0.09,0.045C12.065,13.638,12.075,13.683,12.075,13.728z M11.864,13.728c0,0.023,0.01,0.068,0.021,0.068
					c0.012,0.021,0.035,0.045,0.066,0.045c0.035,0,0.057-0.023,0.068-0.045c0.021,0,0.021-0.045,0.021-0.068
					c0-0.045,0-0.066-0.021-0.09c-0.012-0.02-0.033-0.02-0.068-0.02c-0.031,0-0.055,0-0.066,0.02
					C11.874,13.661,11.864,13.683,11.864,13.728z"/>
				<path fill="#4C4A4C" d="M12.345,13.593v0.158c0,0.045-0.012,0.066-0.021,0.09c-0.023,0.021-0.047,0.021-0.08,0.021
					s-0.055,0-0.078-0.021c-0.021-0.023-0.021-0.045-0.021-0.09v-0.158h0.021v0.18c0,0.023,0.012,0.023,0.023,0.045
					c0.012,0,0.031,0.023,0.055,0.023s0.045-0.023,0.057-0.023c0.012-0.021,0.012-0.021,0.012-0.045v-0.18H12.345z"/>
				<path fill="#4C4A4C" d="M12.458,13.751v0.111h-0.035v-0.27h0.066c0.033,0,0.055,0,0.078,0.025c0.012,0,0.021,0.02,0.021,0.043
					c0,0.045-0.021,0.066-0.055,0.066l0.078,0.135h-0.045l-0.055-0.111H12.458z M12.458,13.728h0.031
					c0.023,0,0.045-0.021,0.055-0.021c0.012-0.023,0.012-0.023,0.012-0.045c0-0.023,0-0.023-0.012-0.043c-0.01,0-0.031,0-0.055,0
					h-0.031V13.728z"/>
				<path fill="#4C4A4C" d="M12.837,13.862h-0.035v-0.244h-0.09v-0.025h0.213v0.025h-0.088V13.862z"/>
				<path fill="#4C4A4C" d="M13.115,13.862h-0.157v-0.27h0.157v0.025h-0.124v0.088h0.112v0.021h-0.112v0.113h0.124V13.862z"/>
				<path fill="#4C4A4C" d="M13.348,13.862h-0.033l-0.066-0.135l-0.078,0.135h-0.033l0.088-0.156l-0.078-0.113h0.035l0.066,0.09
					l0.066-0.09h0.033l-0.088,0.113L13.348,13.862z"/>
				<path fill="#4C4A4C" d="M13.471,13.862h-0.033v-0.244h-0.076v-0.025h0.199v0.025h-0.09V13.862z"/>
				<path fill="#4C4A4C" d="M13.908,13.862h-0.033v-0.135h-0.146v0.135h-0.033v-0.27h0.033v0.113h0.146v-0.113h0.033V13.862z"/>
				<path fill="#4C4A4C" d="M14.131,13.862h-0.146v-0.27h0.146v0.025H14.02v0.088h0.111v0.021H14.02v0.113h0.111V13.862z"/>
				<path fill="#4C4A4C" d="M14.23,13.751v0.111h-0.033v-0.27h0.068c0.031,0,0.064,0,0.078,0.025c0.012,0,0.021,0.02,0.021,0.043
					c0,0.045-0.021,0.066-0.057,0.066l0.08,0.135h-0.045l-0.055-0.111H14.23z M14.23,13.728h0.035c0.023,0,0.043-0.021,0.055-0.021
					c0.01-0.023,0.01-0.023,0.01-0.045c0-0.023,0-0.023-0.01-0.043c-0.012,0-0.031,0-0.055,0H14.23V13.728z"/>
				<path fill="#4C4A4C" d="M14.576,13.862h-0.145v-0.27h0.145v0.025h-0.123v0.088h0.123v0.021h-0.123v0.113h0.123V13.862z"/>
			</g>
			<g>
				<g>
					<path fill="#4C4A4C" d="M10.747,14.13v-0.135h0.012v0.113h0.066v0.021H10.747z"/>
					<path fill="#4C4A4C" d="M10.925,14.063c0,0.023,0,0.045-0.01,0.045c0,0.021-0.023,0.021-0.033,0.021
						c-0.012,0-0.012,0-0.021-0.021c-0.012,0-0.012,0-0.012,0c-0.012-0.021-0.012-0.021-0.012-0.045c0,0,0-0.023,0.012-0.023
						c0.012-0.021,0.021-0.021,0.033-0.021c0.01,0,0.033,0,0.033,0.021C10.925,14.04,10.925,14.063,10.925,14.063z M10.86,14.063
						c0,0.023,0,0.045,0,0.045c0.01,0,0.01,0,0.021,0c0.01,0,0.021,0,0.021,0c0.012,0,0.012-0.021,0.012-0.045
						c0,0,0-0.023-0.012-0.023c0,0-0.012,0-0.021,0c-0.012,0-0.012,0-0.021,0V14.063z"/>
					<path fill="#4C4A4C" d="M11.005,14.019c0,0,0,0,0.012,0v0.021c-0.012,0-0.012,0-0.012,0c-0.012,0-0.023,0-0.023,0
						c-0.012,0-0.012,0.023-0.012,0.023v0.066h-0.01v-0.111h0.01v0.021l0,0c0,0,0.012,0,0.012-0.021
						C10.993,14.019,10.993,14.019,11.005,14.019z"/>
					<path fill="#4C4A4C" d="M11.071,14.13c-0.012,0-0.021,0-0.033-0.021c-0.012,0-0.012-0.021-0.012-0.021
						c0-0.023,0-0.047,0.012-0.047c0.012-0.021,0.021-0.021,0.033-0.021c0.01,0,0.021,0,0.021,0.021c0.012,0,0.023,0,0.023,0.023
						v0.023h-0.078l0.012,0.021c0.01,0,0.01,0,0.021,0c0.01,0,0.021,0,0.033,0l0,0c0,0.021-0.012,0.021-0.012,0.021
						C11.081,14.13,11.081,14.13,11.071,14.13z M11.071,14.04c-0.012,0-0.012,0-0.021,0c0,0-0.012,0-0.012,0.023h0.055
						c0-0.023,0-0.023,0-0.023C11.081,14.04,11.071,14.04,11.071,14.04z"/>
					<path fill="#4C4A4C" d="M11.261,14.13v-0.066c0-0.023,0-0.023,0-0.023c-0.012,0-0.012,0-0.021,0c-0.012,0-0.012,0-0.023,0
						v0.023v0.066h-0.01v-0.066c0-0.023-0.012-0.023-0.012-0.023h-0.01c-0.012,0-0.023,0-0.023,0c-0.012,0-0.012,0.023-0.012,0.023
						v0.066h-0.012v-0.111h0.012v0.021l0,0l0.012-0.021c0.012,0,0.012,0,0.023,0c0.01,0,0.021,0,0.031,0.021l0,0
						c0,0,0-0.021,0.012-0.021c0,0,0.012,0,0.021,0c0,0,0.012,0,0.023,0c0,0.021,0.012,0.021,0.012,0.045v0.066H11.261z"/>
					<path fill="#4C4A4C" d="M11.351,13.995h0.012v-0.021c0.01,0,0.01,0.021,0.01,0.021l0,0l0,0c0,0,0,0-0.01,0l0,0H11.351z
						 M11.372,14.13h-0.01v-0.111h0.01V14.13z"/>
					<path fill="#4C4A4C" d="M11.45,14.13c0,0-0.012,0-0.021,0c0-0.021-0.012-0.021-0.012-0.021l0,0v0.021v0.045h-0.012v-0.156
						h0.012v0.021l0,0c0.012,0,0.012-0.021,0.012-0.021c0.01,0,0.021,0,0.021,0c0.012,0,0.023,0,0.035,0.021l0.01,0.023
						c0,0.023-0.01,0.045-0.01,0.045C11.474,14.13,11.462,14.13,11.45,14.13z M11.45,14.04c-0.012,0-0.021,0-0.021,0
						c-0.012,0-0.012,0.023-0.012,0.023l0,0c0,0.023,0,0.045,0.012,0.045c0,0,0.01,0,0.021,0s0.012,0,0.023,0
						c0-0.021,0-0.021,0-0.045V14.04C11.462,14.04,11.462,14.04,11.45,14.04z"/>
					<path fill="#4C4A4C" d="M11.585,14.108c0,0,0,0-0.012,0c-0.01,0.021-0.021,0.021-0.033,0.021c-0.01,0-0.021,0-0.021-0.021l0,0
						c0,0,0,0,0.012,0h0.01c0.012,0,0.023,0,0.023,0h0.01c0-0.021-0.01-0.021-0.01-0.021s-0.012,0-0.023,0
						c-0.01,0-0.01-0.023-0.021-0.023l0,0V14.04c0,0,0,0,0-0.021c0.012,0,0.021,0,0.033,0s0.021,0,0.033,0l-0.012,0.021
						c-0.01,0-0.021,0-0.021,0c-0.012,0-0.012,0-0.021,0l0,0l0,0c0,0.023,0,0.023,0,0.023c0.01,0,0.01,0,0.021,0
						s0.021,0.023,0.021,0.023C11.585,14.087,11.585,14.087,11.585,14.108z"/>
					<path fill="#4C4A4C" d="M11.618,14.019v0.068c0,0.021,0,0.021,0.012,0.021h0.012c0.01,0,0.021,0,0.021,0
						c0.012,0,0.012-0.021,0.012-0.021v-0.068h0.012v0.111h-0.012v-0.021l0,0c0,0-0.012,0-0.012,0.021c-0.012,0-0.012,0-0.021,0
						c-0.012,0-0.023,0-0.023-0.021c-0.012,0-0.012,0-0.012-0.021v-0.068H11.618z"/>
					<path fill="#4C4A4C" d="M11.853,14.13v-0.066c0-0.023-0.012-0.023-0.012-0.023s0,0-0.01,0c-0.012,0-0.021,0-0.021,0
						l-0.012,0.023v0.066h-0.012v-0.066c0-0.023,0-0.023-0.012-0.023c0,0,0,0-0.012,0c-0.01,0-0.01,0-0.021,0l-0.012,0.023v0.066
						h-0.012v-0.111h0.012v0.021h0.012c0,0,0-0.021,0.012-0.021h0.01c0.023,0,0.035,0,0.035,0.021l0,0l0.012-0.021
						c0.01,0,0.01,0,0.021,0c0.01,0,0.021,0,0.021,0c0.012,0.021,0.012,0.021,0.012,0.045v0.066H11.853z"/>
					<path fill="#4C4A4C" d="M12.009,14.108L12.009,14.108c-0.01,0.021-0.021,0.021-0.033,0.021s-0.023,0-0.023-0.021
						c-0.01,0-0.01-0.021-0.01-0.021c0-0.023,0-0.047,0.01-0.047c0-0.021,0.012-0.021,0.023-0.021s0.023,0,0.033,0.021l0,0v-0.021
						l0,0v-0.045h0.012v0.156h-0.012V14.108z M11.976,14.108c0.012,0,0.023,0,0.023,0c0.01,0,0.01-0.021,0.01-0.021l0,0
						c0-0.023,0-0.047-0.01-0.047c0,0-0.012,0-0.023,0h-0.012c-0.012,0-0.012,0.023-0.012,0.047c0,0,0,0.021,0.012,0.021H11.976z"/>
					<path fill="#4C4A4C" d="M12.144,14.063c0,0.023,0,0.045-0.012,0.045c-0.012,0.021-0.023,0.021-0.033,0.021
						c-0.012,0-0.023,0-0.023-0.021c-0.01,0-0.01,0-0.021,0c0-0.021,0-0.021,0-0.045c0,0,0-0.023,0.012-0.023
						c0.01-0.021,0.021-0.021,0.033-0.021c0.01,0,0.021,0,0.033,0.021C12.144,14.04,12.144,14.063,12.144,14.063z M12.065,14.063
						c0,0.023,0,0.045,0.01,0.045c0,0,0.012,0,0.023,0c0.01,0,0.01,0,0.021,0c0,0,0-0.021,0-0.045V14.04c-0.012,0-0.012,0-0.021,0
						c-0.012,0-0.023,0-0.023,0C12.065,14.04,12.065,14.063,12.065,14.063z"/>
					<path fill="#4C4A4C" d="M12.188,14.13h-0.023v-0.156h0.023V14.13z"/>
					<path fill="#4C4A4C" d="M12.3,14.063c0,0.023,0,0.045-0.012,0.045c-0.012,0.021-0.021,0.021-0.033,0.021s-0.012,0-0.023-0.021
						c-0.012,0-0.012,0-0.012,0c-0.01-0.021-0.01-0.021-0.01-0.045c0,0,0-0.023,0.01-0.023c0.012-0.021,0.023-0.021,0.035-0.021
						s0.021,0,0.033,0.021C12.3,14.04,12.3,14.063,12.3,14.063z M12.22,14.063c0,0.023,0.012,0.045,0.012,0.045
						c0.012,0,0.012,0,0.023,0s0.021,0,0.021,0c0.012,0,0.012-0.021,0.012-0.045c0,0,0-0.023-0.012-0.023c0,0-0.01,0-0.021,0
						s-0.012,0-0.023,0L12.22,14.063z"/>
					<path fill="#4C4A4C" d="M12.378,14.019h0.01v0.021c-0.01,0-0.01,0-0.01,0c-0.012,0-0.023,0-0.023,0
						c-0.01,0-0.01,0.023-0.01,0.023v0.066h-0.021v-0.111h0.021v0.021l0,0c0,0,0,0,0.01-0.021
						C12.366,14.019,12.366,14.019,12.378,14.019z"/>
					<path fill="#4C4A4C" d="M12.513,14.108L12.513,14.108c-0.012,0.021-0.023,0.021-0.035,0.021s-0.02,0-0.033-0.021l0,0
						c0.014,0,0.014,0,0.014,0c0.008,0,0.008,0,0.02,0s0.012,0,0.023,0l0,0c0-0.021,0-0.021,0-0.021c-0.012,0-0.012,0-0.023,0
						s-0.02-0.023-0.02-0.023s0,0-0.014,0V14.04c0,0,0.014,0,0.014-0.021c0.008,0,0.008,0,0.02,0s0.023,0,0.035,0v0.021
						c-0.012,0-0.023,0-0.035,0h-0.012h-0.008c0,0,0,0,0.008,0c0,0.023,0,0.023,0,0.023s0.012,0,0.023,0s0.012,0.023,0.023,0.023
						C12.513,14.087,12.513,14.087,12.513,14.108z"/>
					<path fill="#4C4A4C" d="M12.544,13.995L12.544,13.995v-0.021c0.012,0,0.012,0.021,0.012,0.021l0,0l0,0
						C12.556,13.995,12.556,13.995,12.544,13.995L12.544,13.995L12.544,13.995z M12.556,14.13h-0.012v-0.111h0.012V14.13z"/>
					<path fill="#4C4A4C" d="M12.624,14.108c0,0,0,0,0.01,0l0,0v0.021c0,0,0,0-0.01,0c0,0,0,0-0.012,0s-0.023-0.021-0.023-0.043
						V14.04h-0.01v-0.021h0.01v-0.023h0.012v0.023h0.033v0.021h-0.033v0.047c0,0.021,0,0.021,0.012,0.021
						C12.612,14.108,12.612,14.108,12.624,14.108z"/>
					<path fill="#4C4A4C" d="M12.759,14.13v-0.021l0,0c0,0-0.012,0-0.012,0.021c-0.012,0-0.012,0-0.023,0s-0.012,0-0.021-0.021
						H12.69c0-0.021,0.021-0.045,0.057-0.045h0.012l0,0c0-0.023,0-0.023,0-0.023c-0.012,0-0.012,0-0.023,0c0,0-0.012,0-0.023,0
						l-0.01-0.021c0.01,0,0.01,0,0.021,0h0.012c0.012,0,0.023,0,0.033,0c0,0.021,0.012,0.021,0.012,0.045v0.066H12.759z
						 M12.735,14.108h0.012c0.012,0,0.012-0.021,0.012-0.021l0,0h-0.012c-0.012,0-0.023,0-0.035,0c0,0,0,0,0,0.021l0,0
						C12.712,14.108,12.724,14.108,12.735,14.108z"/>
					<path fill="#4C4A4C" d="M12.937,14.13v-0.066c0-0.023,0-0.023-0.012-0.023c0,0,0,0-0.01,0c-0.012,0-0.023,0-0.023,0
						l-0.012,0.023v0.066h-0.012v-0.066c0-0.023,0-0.023,0-0.023c-0.01,0-0.01,0-0.021,0c-0.01,0-0.01,0-0.021,0v0.023v0.066h-0.023
						v-0.111h0.012l0.012,0.021l0,0c0,0,0-0.021,0.012-0.021h0.01c0.021,0,0.033,0,0.033,0.021l0,0l0.012-0.021
						c0.012,0,0.023,0,0.023,0c0.01,0,0.021,0,0.021,0c0.012,0.021,0.012,0.021,0.012,0.045v0.066H12.937z"/>
					<path fill="#4C4A4C" d="M13.025,14.13c-0.021,0-0.034,0-0.046-0.021l-0.01-0.021c0-0.023,0.01-0.047,0.01-0.047
						c0.012-0.021,0.024-0.021,0.036-0.021c0.01,0,0.02,0,0.031,0.021c0.012,0,0.012,0,0.012,0.023v0.023h-0.067
						c0,0,0,0.021,0.013,0.021c0,0,0.012,0,0.021,0s0.021,0,0.033,0l0,0c-0.012,0.021-0.012,0.021-0.023,0.021H13.025z
						 M13.016,14.04h-0.012c-0.013,0-0.013,0-0.013,0.023h0.056c0-0.023-0.012-0.023-0.012-0.023
						C13.025,14.04,13.025,14.04,13.016,14.04z"/>
					<path fill="#4C4A4C" d="M13.115,14.108h0.01l0,0v0.021l0,0c-0.01,0-0.01,0-0.01,0c-0.021,0-0.035-0.021-0.035-0.043V14.04
						h-0.01v-0.021h0.01l0.014-0.023h0.01v0.023h0.021v0.021h-0.021v0.047c0,0.021,0,0.021,0,0.021H13.115z"/>
					<path fill="#4C4A4C" d="M13.158,14.108h0.012c-0.012,0-0.012,0-0.012,0.021c0,0-0.012,0-0.012,0.023h-0.01
						c0-0.023,0-0.023,0-0.023c0.01-0.021,0.01-0.021,0.01-0.021H13.158z"/>
					<path fill="#4C4A4C" d="M13.281,14.13c-0.012,0-0.021,0-0.033-0.021c-0.01,0-0.01-0.021-0.01-0.021c0-0.023,0-0.047,0.01-0.047
						c0.012-0.021,0.021-0.021,0.033-0.021s0.012,0,0.012,0c0.01,0,0.01,0,0.01,0v0.021h-0.01h-0.012c-0.021,0-0.033,0-0.033,0.047
						l0.012,0.021c0.01,0,0.01,0,0.021,0s0.012,0,0.021,0v0.021C13.303,14.13,13.293,14.13,13.281,14.13z"/>
					<path fill="#4C4A4C" d="M13.416,14.063c0,0.023,0,0.045-0.012,0.045c-0.012,0.021-0.021,0.021-0.031,0.021
						c-0.012,0-0.025,0-0.025-0.021c-0.01,0-0.01,0-0.021,0c0-0.021,0-0.021,0-0.045c0,0,0-0.023,0.012-0.023
						c0.01-0.021,0.023-0.021,0.035-0.021c0.01,0,0.02,0,0.031,0.021C13.416,14.04,13.416,14.063,13.416,14.063z M13.338,14.063
						c0,0.023,0,0.045,0.01,0.045c0,0,0.014,0,0.025,0c0.01,0,0.01,0,0.02,0c0,0,0.012-0.021,0.012-0.045l-0.012-0.023
						c-0.01,0-0.01,0-0.02,0c-0.012,0-0.025,0-0.025,0C13.338,14.04,13.338,14.063,13.338,14.063z"/>
					<path fill="#4C4A4C" d="M13.518,14.13v-0.066c0-0.023-0.012-0.023-0.012-0.023s-0.012,0-0.023,0c0,0-0.012,0-0.021,0v0.023
						v0.066h-0.023v-0.111h0.023v0.021l0,0c0,0,0-0.021,0.01-0.021c0.012,0,0.012,0,0.023,0s0.023,0,0.023,0
						c0.01,0.021,0.01,0.021,0.01,0.045v0.066H13.518z"/>
					<path fill="#4C4A4C" d="M13.617,14.108c0,0,0,0-0.01,0c0,0.021-0.012,0.021-0.023,0.021s-0.023,0-0.035-0.021l0,0h0.012
						c0.012,0,0.012,0,0.023,0h0.012c0.012,0,0.012,0,0.012,0c0-0.021,0-0.021,0-0.021c-0.012,0-0.012,0-0.023,0
						s-0.023-0.023-0.023-0.023h-0.012V14.04c0,0,0,0,0.012-0.021c0,0,0.012,0,0.023,0s0.023,0,0.033,0v0.021
						c-0.01,0-0.021,0-0.033,0h-0.012c-0.012,0-0.012,0-0.012,0l0,0c0.012,0.023,0.012,0.023,0.012,0.023s0.012,0,0.023,0
						s0.012,0.023,0.021,0.023C13.617,14.087,13.617,14.087,13.617,14.108z"/>
					<path fill="#4C4A4C" d="M13.686,14.13c-0.014,0-0.025,0-0.035-0.021c-0.01,0-0.01-0.021-0.01-0.021c0-0.023,0-0.047,0.01-0.047
						c0.01-0.021,0.021-0.021,0.035-0.021c0.01,0,0.02,0,0.02,0.021c0.012,0,0.023,0,0.023,0.023v0.023H13.65l0.01,0.021
						c0.012,0,0.012,0,0.025,0c0.01,0,0.02,0,0.031,0l0,0c0,0.021-0.012,0.021-0.012,0.021C13.695,14.13,13.695,14.13,13.686,14.13z
						 M13.686,14.04c-0.014,0-0.014,0-0.025,0c0,0-0.01,0-0.01,0.023h0.055c0-0.023,0-0.023,0-0.023
						C13.695,14.04,13.695,14.04,13.686,14.04z"/>
					<path fill="#4C4A4C" d="M13.783,14.13c-0.012,0-0.021,0-0.033-0.021l-0.012-0.021c0-0.023,0.012-0.047,0.012-0.047
						c0.012-0.021,0.021-0.021,0.033-0.021s0.012,0,0.023,0c0,0,0,0,0.01,0l-0.01,0.021l0,0c-0.012,0-0.012,0-0.023,0
						s-0.021,0-0.021,0.047c0,0,0,0.021,0.01,0.021h0.012c0.012,0,0.023,0,0.033,0v0.021C13.807,14.13,13.795,14.13,13.783,14.13z"
						/>
					<path fill="#4C4A4C" d="M13.875,14.108L13.875,14.108c0.01,0,0.01,0,0.01,0v0.021c0,0,0,0-0.01,0l0,0
						c-0.023,0-0.035-0.021-0.035-0.043V14.04h-0.01v-0.021h0.01v-0.023h0.012v0.023h0.033v0.021h-0.033v0.047
						c0,0.021,0,0.021,0.012,0.021C13.863,14.108,13.863,14.108,13.875,14.108z"/>
					<path fill="#4C4A4C" d="M13.953,14.13c-0.023,0-0.035,0-0.045-0.021c-0.014,0-0.014-0.021-0.014-0.021
						c0-0.023,0-0.047,0.014-0.047c0.01-0.021,0.021-0.021,0.031-0.021c0.014,0,0.023,0,0.033,0.021c0,0,0.012,0,0.012,0.023v0.023
						h-0.066v0.021c0.012,0,0.012,0,0.035,0c0,0,0.01,0,0.02,0l0,0c0,0.021-0.01,0.021-0.01,0.021H13.953z M13.939,14.04
						c-0.01,0-0.01,0-0.021,0c0,0,0,0,0,0.023h0.045c0-0.023,0-0.023,0-0.023C13.953,14.04,13.953,14.04,13.939,14.04z"/>
					<path fill="#4C4A4C" d="M14.041,14.108c0,0,0,0,0.01,0l0,0v0.021c0,0,0,0-0.01,0l0,0c-0.021,0-0.033-0.021-0.033-0.043V14.04
						h-0.01v-0.021h0.01l0.012-0.023h0.012v0.023h0.02v0.021h-0.02v0.047c0,0.021,0,0.021,0,0.021S14.031,14.108,14.041,14.108z"/>
					<path fill="#4C4A4C" d="M14.086,14.019v0.068c0,0.021,0,0.021,0.012,0.021h0.01c0.014,0,0.023,0,0.023,0
						c0.012,0,0.012-0.021,0.012-0.021v-0.068h0.01v0.111h-0.01v-0.021l0,0c0,0-0.012,0-0.012,0.021c-0.01,0-0.01,0-0.023,0
						c-0.01,0-0.021,0-0.021-0.021c-0.012,0-0.012,0-0.012-0.021v-0.068H14.086z"/>
					<path fill="#4C4A4C" d="M14.23,14.019h0.012v0.021H14.23c-0.01,0-0.01,0-0.023,0l-0.01,0.023v0.066h-0.012v-0.111h0.012v0.021
						l0,0c0.01,0,0.01,0,0.023-0.021H14.23z"/>
				</g>
			</g>
			<rect x="10.603" y="13.235" fill="#4C4A4C" width="3.786" height="0.025"/>
			<g>
				<path fill="#4C4A4C" d="M11.185,11.517v-0.691h0.166c0.066,0,0.111,0.023,0.135,0.066c0.033,0.023,0.045,0.066,0.045,0.133
					c0,0.047,0,0.068-0.012,0.092c0,0.021-0.012,0.043-0.023,0.043c-0.01,0.023-0.021,0.047-0.045,0.047
					c-0.012,0.021-0.033,0.021-0.055,0.021c-0.012,0-0.045,0-0.068,0v0.289H11.185z M11.372,11.116c0.012,0,0.012,0,0.012,0
					s0,0,0.012-0.023l0,0v-0.021v-0.023c0,0,0,0,0-0.023l0,0v-0.021c0,0,0,0,0-0.021c0,0,0,0,0-0.023c-0.012,0-0.012,0-0.012,0
					l-0.012-0.02c-0.01,0-0.01,0-0.021,0c0,0-0.012,0-0.023,0v0.199c0.012,0,0.012,0,0.023,0"/>
				<path fill="#4C4A4C" d="M11.507,11.517l0.145-0.691h0.135l0.145,0.691h-0.133l-0.035-0.135h-0.088l-0.033,0.135H11.507z
					 M11.687,11.294h0.066l-0.035-0.27L11.687,11.294z"/>
				<path fill="#4C4A4C" d="M12.021,11.517v-0.578h-0.1v-0.113h0.346v0.113h-0.102v0.578H12.021z"/>
				<path fill="#4C4A4C" d="M12.378,11.517v-0.578h-0.102v-0.113h0.336v0.113h-0.09v0.578H12.378z"/>
				<path fill="#4C4A4C" d="M12.669,11.517v-0.691h0.289v0.113h-0.156v0.178h0.113v0.111h-0.113v0.201h0.156v0.088H12.669z"/>
				<path fill="#4C4A4C" d="M13.004,11.517v-0.691h0.154c0.035,0,0.066,0.023,0.09,0.023c0.033,0,0.045,0.021,0.066,0.021
					c0.023,0.021,0.033,0.045,0.047,0.068c0.012,0.02,0.021,0.043,0.021,0.086v0.023c-0.01,0.023-0.01,0.023-0.01,0.045
					c-0.012,0.023-0.012,0.023-0.012,0.045c-0.014,0-0.023,0.021-0.035,0.021c-0.012,0.023-0.023,0.023-0.045,0.023
					c0.045,0.133,0.08,0.246,0.111,0.334h-0.145l-0.078-0.311h-0.023v0.311H13.004z M13.146,11.116h0.035c0.012,0,0.021,0,0.033,0
					c0-0.023,0.01-0.023,0.01-0.023c0.014-0.021,0.014-0.021,0.014-0.045v-0.023v-0.021c0,0,0-0.021-0.014-0.021
					c0-0.023,0-0.023-0.01-0.043c0,0-0.012,0-0.021,0L13.146-1V11.116z"/>
				<path fill="#4C4A4C" d="M13.695,10.825h0.111v0.691h-0.102l-0.145-0.379v0.379h-0.123v-0.691h0.102"/>
			</g>
		</g>
	</g>
</g>
</svg>
